<?xml version="1.0" standalone="no"?>
<!DOCTYPE svg PUBLIC "-//W3C//DTD SVG 20010904//EN"
 "http://www.w3.org/TR/2001/REC-SVG-20010904/DTD/svg10.dtd">
<svg version="1.0" xmlns="http://www.w3.org/2000/svg"
 width="500.000000pt" height="500.000000pt" viewBox="0 0 500.000000 500.000000"
 preserveAspectRatio="xMidYMid meet">
<metadata>
Created by potrace 1.14, written by Peter Selinger 2001-2017
</metadata>
<g transform="translate(0.000000,500.000000) scale(0.100000,-0.100000)"
fill="#000000" stroke="none">
<path d="M520 4986 c0 -8 6 -45 14 -83 8 -37 17 -84 20 -103 11 -68 75 -307
114 -425 121 -364 265 -593 586 -935 28 -30 76 -84 106 -120 30 -35 61 -71 68
-78 7 -8 39 -49 71 -91 281 -371 328 -705 149 -1068 -50 -100 -98 -165 -309
-414 -91 -106 -203 -241 -249 -298 -252 -314 -406 -619 -494 -981 -11 -42 -36
-151 -40 -171 -28 -142 -36 -187 -36 -201 0 -17 101 -18 1980 -18 1089 0 1980
2 1980 4 0 3 -16 83 -36 178 -109 529 -228 796 -519 1164 -22 28 -53 69 -70
90 -16 21 -48 59 -71 84 -72 80 -249 292 -325 390 -203 261 -265 570 -175 862
21 68 99 220 153 296 91 132 136 186 324 391 167 184 221 251 302 372 164 248
267 497 351 850 34 140 39 164 51 234 3 17 8 42 11 58 l6 27 -1981 0 c-1714 0
-1981 -2 -1981 -14z"/>
</g>
</svg>
